<?xml version="1.0"?>
<svg xmlns="http://www.w3.org/2000/svg" viewBox="0 0 64 64" width="512" height="512"><g id="Asymmetric_key" data-name="Asymmetric key"><path d="M61,10H49.3L43.555,6.168A1.006,1.006,0,0,0,43,6H19.981A9.991,9.991,0,1,0,8,21.159V48.08A7,7,0,0,0,9,62H55a7.008,7.008,0,0,0,7-7V11A1,1,0,0,0,61,10ZM42.7,8l4.734,3.155L42.586,16H41.414l-1.707-1.707a1,1,0,0,0-1.414,0L37,15.586l-1.293-1.293a1,1,0,0,0-1.414,0L33,15.586l-1.293-1.293A1,1,0,0,0,31,14H25a1,1,0,0,0-.895.553L23.382,16H21.159a9.933,9.933,0,0,0,0-8ZM4,12a8,8,0,1,1,8,8A8.009,8.009,0,0,1,4,12ZM9,60A5,5,0,0,1,9,50H50.111a6.977,6.977,0,0,0,0,10Zm51-5a5,5,0,1,1-5-5,1,1,0,0,0,0-2H10V21.8A9.969,9.969,0,0,0,19.981,18H24a1,1,0,0,0,.895-.553L25.618,16h4.968l1.707,1.707a1,1,0,0,0,1.414,0L35,16.414l1.293,1.293a1,1,0,0,0,1.414,0L39,16.414l1.293,1.293A1,1,0,0,0,41,18h2a1,1,0,0,0,.707-.293L49.414,12H60Z"/><path d="M25,12H43a1,1,0,0,0,0-2H25a1,1,0,0,0,0,2Z"/><path d="M9,9a3,3,0,1,0,3,3A3,3,0,0,0,9,9Zm0,4a1,1,0,1,1,1-1A1,1,0,0,1,9,13Z"/><path d="M21,32a1,1,0,0,1-1-1,1,1,0,0,0-2,0,3,3,0,0,0,2,2.816V35a1,1,0,0,0,2,0V33.816A2.993,2.993,0,0,0,21,28a1,1,0,1,1,1-1,1,1,0,0,0,2,0,3,3,0,0,0-2-2.816V23a1,1,0,0,0-2,0v1.184A2.993,2.993,0,0,0,21,30a1,1,0,0,1,0,2Z"/><path d="M29,22a1,1,0,0,0,0,2H55a1,1,0,0,0,0-2Z"/><path d="M55,28H29a1,1,0,0,0,0,2H55a1,1,0,0,0,0-2Z"/><path d="M55,34H29a1,1,0,0,0,0,2H55a1,1,0,0,0,0-2Z"/><path d="M55,40H15a1,1,0,0,0,0,2H55a1,1,0,0,0,0-2Z"/></g></svg>
